<mxfile host="app.diagrams.net" agent="Mozilla/5.0 (Windows NT 10.0; Win64; x64; rv:138.0) Gecko/20100101 Firefox/138.0" version="26.2.14">
  <diagram id="C5RBs43oDa-KdzZeNtuy" name="Page-1">
    <mxGraphModel dx="3173" dy="3305" grid="1" gridSize="10" guides="1" tooltips="1" connect="1" arrows="1" fold="1" page="0" pageScale="1" pageWidth="827" pageHeight="1169" math="0" shadow="0">
      <root>
        <mxCell id="WIyWlLk6GJQsqaUBKTNV-0" />
        <mxCell id="WIyWlLk6GJQsqaUBKTNV-1" parent="WIyWlLk6GJQsqaUBKTNV-0" />
        <mxCell id="wXpOA6ohuVYkugTAgdoW-139" style="edgeStyle=orthogonalEdgeStyle;rounded=0;orthogonalLoop=1;jettySize=auto;html=1;exitX=0.5;exitY=1;exitDx=0;exitDy=0;entryX=0.5;entryY=0;entryDx=0;entryDy=0;" edge="1" parent="WIyWlLk6GJQsqaUBKTNV-1" source="wXpOA6ohuVYkugTAgdoW-3" target="wXpOA6ohuVYkugTAgdoW-75">
          <mxGeometry relative="1" as="geometry" />
        </mxCell>
        <mxCell id="wXpOA6ohuVYkugTAgdoW-3" value="Arrivée sur la page d&#39;accueil" style="rounded=1;whiteSpace=wrap;html=1;fillColor=#e1d5e7;strokeColor=#9673a6;" vertex="1" parent="WIyWlLk6GJQsqaUBKTNV-1">
          <mxGeometry x="60" y="-350" width="120" height="60" as="geometry" />
        </mxCell>
        <mxCell id="wXpOA6ohuVYkugTAgdoW-43" style="edgeStyle=orthogonalEdgeStyle;rounded=0;orthogonalLoop=1;jettySize=auto;html=1;exitX=0.5;exitY=1;exitDx=0;exitDy=0;entryX=0.5;entryY=0;entryDx=0;entryDy=0;" edge="1" parent="WIyWlLk6GJQsqaUBKTNV-1" source="wXpOA6ohuVYkugTAgdoW-33" target="wXpOA6ohuVYkugTAgdoW-35">
          <mxGeometry relative="1" as="geometry" />
        </mxCell>
        <mxCell id="wXpOA6ohuVYkugTAgdoW-33" value="Recettes &amp;amp; Recommandation" style="rounded=1;whiteSpace=wrap;html=1;fillColor=#e1d5e7;strokeColor=#9673a6;" vertex="1" parent="WIyWlLk6GJQsqaUBKTNV-1">
          <mxGeometry x="670" y="-40" width="120" height="60" as="geometry" />
        </mxCell>
        <mxCell id="wXpOA6ohuVYkugTAgdoW-98" style="edgeStyle=orthogonalEdgeStyle;rounded=0;orthogonalLoop=1;jettySize=auto;html=1;exitX=1;exitY=0.5;exitDx=0;exitDy=0;entryX=0.5;entryY=0;entryDx=0;entryDy=0;" edge="1" parent="WIyWlLk6GJQsqaUBKTNV-1" source="wXpOA6ohuVYkugTAgdoW-35" target="wXpOA6ohuVYkugTAgdoW-97">
          <mxGeometry relative="1" as="geometry" />
        </mxCell>
        <mxCell id="wXpOA6ohuVYkugTAgdoW-99" style="edgeStyle=orthogonalEdgeStyle;rounded=0;orthogonalLoop=1;jettySize=auto;html=1;exitX=1;exitY=0.5;exitDx=0;exitDy=0;entryX=0.5;entryY=0;entryDx=0;entryDy=0;" edge="1" parent="WIyWlLk6GJQsqaUBKTNV-1" source="wXpOA6ohuVYkugTAgdoW-35" target="wXpOA6ohuVYkugTAgdoW-96">
          <mxGeometry relative="1" as="geometry" />
        </mxCell>
        <mxCell id="wXpOA6ohuVYkugTAgdoW-158" style="edgeStyle=orthogonalEdgeStyle;rounded=0;orthogonalLoop=1;jettySize=auto;html=1;exitX=0.5;exitY=1;exitDx=0;exitDy=0;entryX=0.5;entryY=0;entryDx=0;entryDy=0;" edge="1" parent="WIyWlLk6GJQsqaUBKTNV-1" source="wXpOA6ohuVYkugTAgdoW-35" target="wXpOA6ohuVYkugTAgdoW-156">
          <mxGeometry relative="1" as="geometry" />
        </mxCell>
        <mxCell id="wXpOA6ohuVYkugTAgdoW-35" value="&lt;div&gt;Action&amp;nbsp;&lt;/div&gt;&lt;div&gt;choisie ?&lt;/div&gt;" style="rhombus;whiteSpace=wrap;html=1;fillColor=#dae8fc;strokeColor=#6c8ebf;" vertex="1" parent="WIyWlLk6GJQsqaUBKTNV-1">
          <mxGeometry x="690" y="50" width="80" height="80" as="geometry" />
        </mxCell>
        <mxCell id="wXpOA6ohuVYkugTAgdoW-40" style="edgeStyle=orthogonalEdgeStyle;rounded=0;orthogonalLoop=1;jettySize=auto;html=1;exitX=0.5;exitY=1;exitDx=0;exitDy=0;entryX=0.5;entryY=0;entryDx=0;entryDy=0;" edge="1" parent="WIyWlLk6GJQsqaUBKTNV-1" source="wXpOA6ohuVYkugTAgdoW-36" target="wXpOA6ohuVYkugTAgdoW-37">
          <mxGeometry relative="1" as="geometry" />
        </mxCell>
        <mxCell id="wXpOA6ohuVYkugTAgdoW-36" value="&lt;div&gt;Filtrer les&amp;nbsp;&lt;/div&gt;&lt;div&gt;recettes par repas&lt;/div&gt;" style="rounded=1;whiteSpace=wrap;html=1;fillColor=#ffe6cc;strokeColor=#d79b00;" vertex="1" parent="WIyWlLk6GJQsqaUBKTNV-1">
          <mxGeometry x="790" y="260" width="120" height="60" as="geometry" />
        </mxCell>
        <mxCell id="wXpOA6ohuVYkugTAgdoW-41" style="edgeStyle=orthogonalEdgeStyle;rounded=0;orthogonalLoop=1;jettySize=auto;html=1;exitX=0.5;exitY=1;exitDx=0;exitDy=0;entryX=0.5;entryY=0;entryDx=0;entryDy=0;" edge="1" parent="WIyWlLk6GJQsqaUBKTNV-1" source="wXpOA6ohuVYkugTAgdoW-37" target="wXpOA6ohuVYkugTAgdoW-38">
          <mxGeometry relative="1" as="geometry" />
        </mxCell>
        <mxCell id="wXpOA6ohuVYkugTAgdoW-37" value="&lt;div&gt;Filtrer les&amp;nbsp;&lt;/div&gt;&lt;div&gt;recettes par temps de préparation&lt;/div&gt;" style="rounded=1;whiteSpace=wrap;html=1;fillColor=#ffe6cc;strokeColor=#d79b00;" vertex="1" parent="WIyWlLk6GJQsqaUBKTNV-1">
          <mxGeometry x="790" y="340" width="120" height="60" as="geometry" />
        </mxCell>
        <mxCell id="wXpOA6ohuVYkugTAgdoW-62" style="edgeStyle=orthogonalEdgeStyle;rounded=0;orthogonalLoop=1;jettySize=auto;html=1;exitX=0.5;exitY=1;exitDx=0;exitDy=0;entryX=0.5;entryY=0;entryDx=0;entryDy=0;" edge="1" parent="WIyWlLk6GJQsqaUBKTNV-1" source="wXpOA6ohuVYkugTAgdoW-38" target="wXpOA6ohuVYkugTAgdoW-59">
          <mxGeometry relative="1" as="geometry" />
        </mxCell>
        <mxCell id="wXpOA6ohuVYkugTAgdoW-38" value="&lt;div&gt;Filtrer les&amp;nbsp;&lt;/div&gt;&lt;div&gt;recettes par nombre d&#39;ingrédients&lt;/div&gt;" style="rounded=1;whiteSpace=wrap;html=1;fillColor=#ffe6cc;strokeColor=#d79b00;" vertex="1" parent="WIyWlLk6GJQsqaUBKTNV-1">
          <mxGeometry x="790" y="420" width="120" height="60" as="geometry" />
        </mxCell>
        <mxCell id="wXpOA6ohuVYkugTAgdoW-101" style="edgeStyle=orthogonalEdgeStyle;rounded=0;orthogonalLoop=1;jettySize=auto;html=1;exitX=0.5;exitY=1;exitDx=0;exitDy=0;entryX=1;entryY=1;entryDx=0;entryDy=0;dashed=1;dashPattern=8 8;" edge="1" parent="WIyWlLk6GJQsqaUBKTNV-1" source="wXpOA6ohuVYkugTAgdoW-44" target="wXpOA6ohuVYkugTAgdoW-35">
          <mxGeometry relative="1" as="geometry">
            <Array as="points">
              <mxPoint x="1040" y="660" />
              <mxPoint x="750" y="660" />
            </Array>
          </mxGeometry>
        </mxCell>
        <mxCell id="wXpOA6ohuVYkugTAgdoW-44" value="&lt;div&gt;Ajouter une recette&lt;/div&gt;&lt;div&gt;&amp;nbsp;à la liste de recettes&lt;/div&gt;" style="rounded=1;whiteSpace=wrap;html=1;fillColor=#ffe6cc;strokeColor=#d79b00;" vertex="1" parent="WIyWlLk6GJQsqaUBKTNV-1">
          <mxGeometry x="980" y="260" width="120" height="60" as="geometry" />
        </mxCell>
        <mxCell id="wXpOA6ohuVYkugTAgdoW-142" style="edgeStyle=orthogonalEdgeStyle;rounded=0;orthogonalLoop=1;jettySize=auto;html=1;exitX=0.5;exitY=1;exitDx=0;exitDy=0;entryX=0.5;entryY=0;entryDx=0;entryDy=0;" edge="1" parent="WIyWlLk6GJQsqaUBKTNV-1" source="wXpOA6ohuVYkugTAgdoW-46" target="wXpOA6ohuVYkugTAgdoW-141">
          <mxGeometry relative="1" as="geometry" />
        </mxCell>
        <mxCell id="wXpOA6ohuVYkugTAgdoW-46" value="Liste de courses" style="rounded=1;whiteSpace=wrap;html=1;fillColor=#e1d5e7;strokeColor=#9673a6;" vertex="1" parent="WIyWlLk6GJQsqaUBKTNV-1">
          <mxGeometry x="1160" y="-40" width="120" height="60" as="geometry" />
        </mxCell>
        <mxCell id="wXpOA6ohuVYkugTAgdoW-106" style="edgeStyle=orthogonalEdgeStyle;rounded=0;orthogonalLoop=1;jettySize=auto;html=1;exitX=0.5;exitY=1;exitDx=0;exitDy=0;entryX=0.5;entryY=0;entryDx=0;entryDy=0;" edge="1" parent="WIyWlLk6GJQsqaUBKTNV-1" source="wXpOA6ohuVYkugTAgdoW-48" target="wXpOA6ohuVYkugTAgdoW-104">
          <mxGeometry relative="1" as="geometry" />
        </mxCell>
        <mxCell id="wXpOA6ohuVYkugTAgdoW-107" style="edgeStyle=orthogonalEdgeStyle;rounded=0;orthogonalLoop=1;jettySize=auto;html=1;exitX=1;exitY=0.5;exitDx=0;exitDy=0;entryX=0.5;entryY=0;entryDx=0;entryDy=0;" edge="1" parent="WIyWlLk6GJQsqaUBKTNV-1" source="wXpOA6ohuVYkugTAgdoW-48" target="wXpOA6ohuVYkugTAgdoW-105">
          <mxGeometry relative="1" as="geometry" />
        </mxCell>
        <mxCell id="wXpOA6ohuVYkugTAgdoW-48" value="Type génération" style="rhombus;whiteSpace=wrap;html=1;fillColor=#dae8fc;strokeColor=#6c8ebf;" vertex="1" parent="WIyWlLk6GJQsqaUBKTNV-1">
          <mxGeometry x="1280" y="270" width="80" height="80" as="geometry" />
        </mxCell>
        <mxCell id="wXpOA6ohuVYkugTAgdoW-64" style="edgeStyle=orthogonalEdgeStyle;rounded=0;orthogonalLoop=1;jettySize=auto;html=1;exitX=0.5;exitY=1;exitDx=0;exitDy=0;entryX=0.5;entryY=0;entryDx=0;entryDy=0;" edge="1" parent="WIyWlLk6GJQsqaUBKTNV-1" source="wXpOA6ohuVYkugTAgdoW-55" target="wXpOA6ohuVYkugTAgdoW-63">
          <mxGeometry relative="1" as="geometry" />
        </mxCell>
        <mxCell id="wXpOA6ohuVYkugTAgdoW-55" value="&lt;div&gt;Ajout de produits&lt;/div&gt;&lt;div&gt;dans la liste&lt;/div&gt;" style="rounded=1;whiteSpace=wrap;html=1;fillColor=#ffe6cc;strokeColor=#d79b00;" vertex="1" parent="WIyWlLk6GJQsqaUBKTNV-1">
          <mxGeometry x="1420" y="455" width="120" height="60" as="geometry" />
        </mxCell>
        <mxCell id="wXpOA6ohuVYkugTAgdoW-61" style="edgeStyle=orthogonalEdgeStyle;rounded=0;orthogonalLoop=1;jettySize=auto;html=1;exitX=0.5;exitY=1;exitDx=0;exitDy=0;entryX=0.5;entryY=0;entryDx=0;entryDy=0;" edge="1" parent="WIyWlLk6GJQsqaUBKTNV-1" source="wXpOA6ohuVYkugTAgdoW-59" target="wXpOA6ohuVYkugTAgdoW-60">
          <mxGeometry relative="1" as="geometry" />
        </mxCell>
        <mxCell id="wXpOA6ohuVYkugTAgdoW-59" value="&lt;div&gt;Filtrer les&amp;nbsp;&lt;/div&gt;&lt;div&gt;recettes par régime alimentaire&lt;/div&gt;" style="rounded=1;whiteSpace=wrap;html=1;fillColor=#ffe6cc;strokeColor=#d79b00;" vertex="1" parent="WIyWlLk6GJQsqaUBKTNV-1">
          <mxGeometry x="790" y="500" width="120" height="60" as="geometry" />
        </mxCell>
        <mxCell id="wXpOA6ohuVYkugTAgdoW-100" style="edgeStyle=orthogonalEdgeStyle;rounded=0;orthogonalLoop=1;jettySize=auto;html=1;exitX=0.5;exitY=1;exitDx=0;exitDy=0;entryX=1;entryY=1;entryDx=0;entryDy=0;dashed=1;dashPattern=8 8;" edge="1" parent="WIyWlLk6GJQsqaUBKTNV-1" source="wXpOA6ohuVYkugTAgdoW-60" target="wXpOA6ohuVYkugTAgdoW-35">
          <mxGeometry relative="1" as="geometry" />
        </mxCell>
        <mxCell id="wXpOA6ohuVYkugTAgdoW-60" value="Recherche par mots-clé" style="rounded=1;whiteSpace=wrap;html=1;fillColor=#ffe6cc;strokeColor=#d79b00;" vertex="1" parent="WIyWlLk6GJQsqaUBKTNV-1">
          <mxGeometry x="790" y="580" width="120" height="60" as="geometry" />
        </mxCell>
        <mxCell id="wXpOA6ohuVYkugTAgdoW-111" style="edgeStyle=orthogonalEdgeStyle;rounded=0;orthogonalLoop=1;jettySize=auto;html=1;exitX=0.5;exitY=1;exitDx=0;exitDy=0;entryX=0.5;entryY=0;entryDx=0;entryDy=0;" edge="1" parent="WIyWlLk6GJQsqaUBKTNV-1" source="wXpOA6ohuVYkugTAgdoW-63" target="wXpOA6ohuVYkugTAgdoW-65">
          <mxGeometry relative="1" as="geometry" />
        </mxCell>
        <mxCell id="wXpOA6ohuVYkugTAgdoW-63" value="Suppression de produits&lt;div&gt;dans la liste&lt;/div&gt;" style="rounded=1;whiteSpace=wrap;html=1;fillColor=#ffe6cc;strokeColor=#d79b00;" vertex="1" parent="WIyWlLk6GJQsqaUBKTNV-1">
          <mxGeometry x="1420" y="545" width="120" height="60" as="geometry" />
        </mxCell>
        <mxCell id="wXpOA6ohuVYkugTAgdoW-151" style="edgeStyle=orthogonalEdgeStyle;rounded=0;orthogonalLoop=1;jettySize=auto;html=1;exitX=0.5;exitY=1;exitDx=0;exitDy=0;entryX=1;entryY=1;entryDx=0;entryDy=0;dashed=1;dashPattern=12 12;" edge="1" parent="WIyWlLk6GJQsqaUBKTNV-1" source="wXpOA6ohuVYkugTAgdoW-65" target="wXpOA6ohuVYkugTAgdoW-141">
          <mxGeometry relative="1" as="geometry">
            <Array as="points">
              <mxPoint x="1330" y="710" />
              <mxPoint x="1330" y="790" />
              <mxPoint x="1240" y="790" />
            </Array>
          </mxGeometry>
        </mxCell>
        <mxCell id="wXpOA6ohuVYkugTAgdoW-65" value="Regroupement par rayon" style="rounded=1;whiteSpace=wrap;html=1;fillColor=#ffe6cc;strokeColor=#d79b00;" vertex="1" parent="WIyWlLk6GJQsqaUBKTNV-1">
          <mxGeometry x="1260" y="650" width="120" height="60" as="geometry" />
        </mxCell>
        <mxCell id="wXpOA6ohuVYkugTAgdoW-115" style="edgeStyle=orthogonalEdgeStyle;rounded=0;orthogonalLoop=1;jettySize=auto;html=1;exitX=0.5;exitY=1;exitDx=0;exitDy=0;entryX=0.5;entryY=0;entryDx=0;entryDy=0;" edge="1" parent="WIyWlLk6GJQsqaUBKTNV-1" source="wXpOA6ohuVYkugTAgdoW-68" target="wXpOA6ohuVYkugTAgdoW-114">
          <mxGeometry relative="1" as="geometry" />
        </mxCell>
        <mxCell id="wXpOA6ohuVYkugTAgdoW-68" value="&lt;div&gt;Liste des recettes&lt;/div&gt;" style="rounded=1;whiteSpace=wrap;html=1;fillColor=#e1d5e7;strokeColor=#9673a6;" vertex="1" parent="WIyWlLk6GJQsqaUBKTNV-1">
          <mxGeometry x="1690" y="-40" width="120" height="60" as="geometry" />
        </mxCell>
        <mxCell id="wXpOA6ohuVYkugTAgdoW-124" style="edgeStyle=orthogonalEdgeStyle;rounded=0;orthogonalLoop=1;jettySize=auto;html=1;exitX=0.5;exitY=1;exitDx=0;exitDy=0;entryX=1;entryY=1;entryDx=0;entryDy=0;dashed=1;dashPattern=8 8;" edge="1" parent="WIyWlLk6GJQsqaUBKTNV-1" source="wXpOA6ohuVYkugTAgdoW-70" target="wXpOA6ohuVYkugTAgdoW-114">
          <mxGeometry relative="1" as="geometry">
            <Array as="points">
              <mxPoint x="2040" y="310" />
              <mxPoint x="1770" y="310" />
            </Array>
          </mxGeometry>
        </mxCell>
        <mxCell id="wXpOA6ohuVYkugTAgdoW-70" value="&lt;div&gt;Supprimer une recette de la liste de recettes&lt;/div&gt;" style="rounded=1;whiteSpace=wrap;html=1;fillColor=#ffe6cc;strokeColor=#d79b00;" vertex="1" parent="WIyWlLk6GJQsqaUBKTNV-1">
          <mxGeometry x="1980" y="190" width="120" height="60" as="geometry" />
        </mxCell>
        <mxCell id="wXpOA6ohuVYkugTAgdoW-123" style="edgeStyle=orthogonalEdgeStyle;rounded=0;orthogonalLoop=1;jettySize=auto;html=1;exitX=0.5;exitY=1;exitDx=0;exitDy=0;entryX=1;entryY=1;entryDx=0;entryDy=0;dashed=1;dashPattern=8 8;" edge="1" parent="WIyWlLk6GJQsqaUBKTNV-1" source="wXpOA6ohuVYkugTAgdoW-73" target="wXpOA6ohuVYkugTAgdoW-114">
          <mxGeometry relative="1" as="geometry">
            <Array as="points">
              <mxPoint x="1890" y="310" />
              <mxPoint x="1770" y="310" />
            </Array>
          </mxGeometry>
        </mxCell>
        <mxCell id="wXpOA6ohuVYkugTAgdoW-73" value="&lt;div&gt;Ajouter une recette&lt;/div&gt;&lt;div&gt;&amp;nbsp;à la liste de recettes&lt;/div&gt;" style="rounded=1;whiteSpace=wrap;html=1;fillColor=#ffe6cc;strokeColor=#d79b00;" vertex="1" parent="WIyWlLk6GJQsqaUBKTNV-1">
          <mxGeometry x="1830" y="190" width="120" height="60" as="geometry" />
        </mxCell>
        <mxCell id="wXpOA6ohuVYkugTAgdoW-127" style="edgeStyle=orthogonalEdgeStyle;rounded=0;orthogonalLoop=1;jettySize=auto;html=1;exitX=1;exitY=0.5;exitDx=0;exitDy=0;entryX=0.5;entryY=0;entryDx=0;entryDy=0;" edge="1" parent="WIyWlLk6GJQsqaUBKTNV-1" source="wXpOA6ohuVYkugTAgdoW-75" target="wXpOA6ohuVYkugTAgdoW-4">
          <mxGeometry relative="1" as="geometry">
            <mxPoint x="520" y="-40" as="targetPoint" />
          </mxGeometry>
        </mxCell>
        <mxCell id="wXpOA6ohuVYkugTAgdoW-128" style="edgeStyle=orthogonalEdgeStyle;rounded=0;orthogonalLoop=1;jettySize=auto;html=1;exitX=1;exitY=0.5;exitDx=0;exitDy=0;entryX=0.5;entryY=0;entryDx=0;entryDy=0;" edge="1" parent="WIyWlLk6GJQsqaUBKTNV-1" source="wXpOA6ohuVYkugTAgdoW-75" target="wXpOA6ohuVYkugTAgdoW-33">
          <mxGeometry relative="1" as="geometry" />
        </mxCell>
        <mxCell id="wXpOA6ohuVYkugTAgdoW-129" style="edgeStyle=orthogonalEdgeStyle;rounded=0;orthogonalLoop=1;jettySize=auto;html=1;exitX=1;exitY=0.5;exitDx=0;exitDy=0;entryX=0.5;entryY=0;entryDx=0;entryDy=0;" edge="1" parent="WIyWlLk6GJQsqaUBKTNV-1" source="wXpOA6ohuVYkugTAgdoW-75" target="wXpOA6ohuVYkugTAgdoW-46">
          <mxGeometry relative="1" as="geometry" />
        </mxCell>
        <mxCell id="wXpOA6ohuVYkugTAgdoW-130" style="edgeStyle=orthogonalEdgeStyle;rounded=0;orthogonalLoop=1;jettySize=auto;html=1;exitX=1;exitY=0.5;exitDx=0;exitDy=0;entryX=0.5;entryY=0;entryDx=0;entryDy=0;" edge="1" parent="WIyWlLk6GJQsqaUBKTNV-1" source="wXpOA6ohuVYkugTAgdoW-75" target="wXpOA6ohuVYkugTAgdoW-68">
          <mxGeometry relative="1" as="geometry" />
        </mxCell>
        <mxCell id="wXpOA6ohuVYkugTAgdoW-75" value="Choix de la page" style="rhombus;whiteSpace=wrap;html=1;fillColor=#dae8fc;strokeColor=#6c8ebf;" vertex="1" parent="WIyWlLk6GJQsqaUBKTNV-1">
          <mxGeometry x="80" y="-260" width="80" height="80" as="geometry" />
        </mxCell>
        <mxCell id="wXpOA6ohuVYkugTAgdoW-95" value="" style="group" vertex="1" connectable="0" parent="WIyWlLk6GJQsqaUBKTNV-1">
          <mxGeometry x="210" y="-40" width="420" height="520" as="geometry" />
        </mxCell>
        <mxCell id="wXpOA6ohuVYkugTAgdoW-21" style="edgeStyle=orthogonalEdgeStyle;rounded=0;orthogonalLoop=1;jettySize=auto;html=1;exitX=0.5;exitY=1;exitDx=0;exitDy=0;entryX=0.5;entryY=0;entryDx=0;entryDy=0;" edge="1" parent="wXpOA6ohuVYkugTAgdoW-95" source="wXpOA6ohuVYkugTAgdoW-4" target="wXpOA6ohuVYkugTAgdoW-20">
          <mxGeometry relative="1" as="geometry" />
        </mxCell>
        <mxCell id="wXpOA6ohuVYkugTAgdoW-4" value="&lt;div&gt;Page Profil&lt;/div&gt;" style="rounded=1;whiteSpace=wrap;html=1;fillColor=#e1d5e7;strokeColor=#9673a6;" vertex="1" parent="wXpOA6ohuVYkugTAgdoW-95">
          <mxGeometry width="120" height="60" as="geometry" />
        </mxCell>
        <mxCell id="wXpOA6ohuVYkugTAgdoW-89" style="edgeStyle=orthogonalEdgeStyle;rounded=0;orthogonalLoop=1;jettySize=auto;html=1;exitX=1;exitY=0.5;exitDx=0;exitDy=0;entryX=0.5;entryY=0;entryDx=0;entryDy=0;" edge="1" parent="wXpOA6ohuVYkugTAgdoW-95" source="wXpOA6ohuVYkugTAgdoW-20" target="wXpOA6ohuVYkugTAgdoW-87">
          <mxGeometry relative="1" as="geometry" />
        </mxCell>
        <mxCell id="wXpOA6ohuVYkugTAgdoW-92" style="edgeStyle=orthogonalEdgeStyle;rounded=0;orthogonalLoop=1;jettySize=auto;html=1;exitX=1;exitY=0.5;exitDx=0;exitDy=0;entryX=0.5;entryY=0;entryDx=0;entryDy=0;" edge="1" parent="wXpOA6ohuVYkugTAgdoW-95" source="wXpOA6ohuVYkugTAgdoW-20" target="wXpOA6ohuVYkugTAgdoW-86">
          <mxGeometry relative="1" as="geometry" />
        </mxCell>
        <mxCell id="wXpOA6ohuVYkugTAgdoW-20" value="&lt;div&gt;Action&amp;nbsp;&lt;/div&gt;&lt;div&gt;choisie ?&lt;/div&gt;" style="rhombus;whiteSpace=wrap;html=1;fillColor=#dae8fc;strokeColor=#6c8ebf;" vertex="1" parent="wXpOA6ohuVYkugTAgdoW-95">
          <mxGeometry x="20" y="100" width="80" height="80" as="geometry" />
        </mxCell>
        <mxCell id="wXpOA6ohuVYkugTAgdoW-76" style="edgeStyle=orthogonalEdgeStyle;rounded=0;orthogonalLoop=1;jettySize=auto;html=1;exitX=0.5;exitY=1;exitDx=0;exitDy=0;entryX=0.5;entryY=0;entryDx=0;entryDy=0;" edge="1" parent="wXpOA6ohuVYkugTAgdoW-95" source="wXpOA6ohuVYkugTAgdoW-77" target="wXpOA6ohuVYkugTAgdoW-80">
          <mxGeometry relative="1" as="geometry" />
        </mxCell>
        <mxCell id="wXpOA6ohuVYkugTAgdoW-77" value="&lt;div&gt;Saisie du nombre&lt;/div&gt;&lt;div&gt;&amp;nbsp;de personnes&lt;/div&gt;" style="rounded=1;whiteSpace=wrap;html=1;fillColor=#ffe6cc;strokeColor=#d79b00;" vertex="1" parent="wXpOA6ohuVYkugTAgdoW-95">
          <mxGeometry x="150" y="300" width="120" height="60" as="geometry" />
        </mxCell>
        <mxCell id="wXpOA6ohuVYkugTAgdoW-93" style="edgeStyle=orthogonalEdgeStyle;rounded=0;orthogonalLoop=1;jettySize=auto;html=1;exitX=0.5;exitY=1;exitDx=0;exitDy=0;entryX=1;entryY=1;entryDx=0;entryDy=0;dashed=1;dashPattern=12 12;" edge="1" parent="wXpOA6ohuVYkugTAgdoW-95" source="wXpOA6ohuVYkugTAgdoW-78" target="wXpOA6ohuVYkugTAgdoW-20">
          <mxGeometry relative="1" as="geometry" />
        </mxCell>
        <mxCell id="wXpOA6ohuVYkugTAgdoW-78" value="Saisie du budget hebdomadaire ou mensuel" style="rounded=1;whiteSpace=wrap;html=1;fillColor=#ffe6cc;strokeColor=#d79b00;" vertex="1" parent="wXpOA6ohuVYkugTAgdoW-95">
          <mxGeometry x="150" y="460" width="120" height="60" as="geometry" />
        </mxCell>
        <mxCell id="wXpOA6ohuVYkugTAgdoW-79" style="edgeStyle=orthogonalEdgeStyle;rounded=0;orthogonalLoop=1;jettySize=auto;html=1;exitX=0.5;exitY=1;exitDx=0;exitDy=0;entryX=0.5;entryY=0;entryDx=0;entryDy=0;" edge="1" parent="wXpOA6ohuVYkugTAgdoW-95" source="wXpOA6ohuVYkugTAgdoW-80" target="wXpOA6ohuVYkugTAgdoW-78">
          <mxGeometry relative="1" as="geometry" />
        </mxCell>
        <mxCell id="wXpOA6ohuVYkugTAgdoW-80" value="&lt;div&gt;Saisie des régimes alimentaires&lt;/div&gt;" style="rounded=1;whiteSpace=wrap;html=1;fillColor=#ffe6cc;strokeColor=#d79b00;" vertex="1" parent="wXpOA6ohuVYkugTAgdoW-95">
          <mxGeometry x="150" y="380" width="120" height="60" as="geometry" />
        </mxCell>
        <mxCell id="wXpOA6ohuVYkugTAgdoW-81" style="edgeStyle=orthogonalEdgeStyle;rounded=0;orthogonalLoop=1;jettySize=auto;html=1;exitX=0.5;exitY=1;exitDx=0;exitDy=0;entryX=0.5;entryY=0;entryDx=0;entryDy=0;" edge="1" parent="wXpOA6ohuVYkugTAgdoW-95" source="wXpOA6ohuVYkugTAgdoW-82" target="wXpOA6ohuVYkugTAgdoW-84">
          <mxGeometry relative="1" as="geometry" />
        </mxCell>
        <mxCell id="wXpOA6ohuVYkugTAgdoW-82" value="L&#39;utilisateur aime-t-il la cuisine" style="rounded=1;whiteSpace=wrap;html=1;fillColor=#ffe6cc;strokeColor=#d79b00;" vertex="1" parent="wXpOA6ohuVYkugTAgdoW-95">
          <mxGeometry x="300" y="300" width="120" height="60" as="geometry" />
        </mxCell>
        <mxCell id="wXpOA6ohuVYkugTAgdoW-83" style="edgeStyle=orthogonalEdgeStyle;rounded=0;orthogonalLoop=1;jettySize=auto;html=1;exitX=0.5;exitY=1;exitDx=0;exitDy=0;entryX=0.5;entryY=0;entryDx=0;entryDy=0;" edge="1" parent="wXpOA6ohuVYkugTAgdoW-95" source="wXpOA6ohuVYkugTAgdoW-84" target="wXpOA6ohuVYkugTAgdoW-85">
          <mxGeometry relative="1" as="geometry" />
        </mxCell>
        <mxCell id="wXpOA6ohuVYkugTAgdoW-84" value="Saisie du temps dispomible moyen" style="rounded=1;whiteSpace=wrap;html=1;fillColor=#ffe6cc;strokeColor=#d79b00;" vertex="1" parent="wXpOA6ohuVYkugTAgdoW-95">
          <mxGeometry x="300" y="380" width="120" height="60" as="geometry" />
        </mxCell>
        <mxCell id="wXpOA6ohuVYkugTAgdoW-94" style="edgeStyle=orthogonalEdgeStyle;rounded=0;orthogonalLoop=1;jettySize=auto;html=1;exitX=0.5;exitY=1;exitDx=0;exitDy=0;entryX=1;entryY=1;entryDx=0;entryDy=0;dashed=1;dashPattern=12 12;" edge="1" parent="wXpOA6ohuVYkugTAgdoW-95" source="wXpOA6ohuVYkugTAgdoW-85" target="wXpOA6ohuVYkugTAgdoW-20">
          <mxGeometry relative="1" as="geometry" />
        </mxCell>
        <mxCell id="wXpOA6ohuVYkugTAgdoW-85" value="Saisie de la source &lt;font style=&quot;font-size: 12px;&quot;&gt;&lt;span id=&quot;docs-internal-guid-774d3248-7fff-bee1-e247-83fd71345e65&quot; style=&quot;font-family: Arial, sans-serif; color: rgb(0, 0, 0); background-color: transparent; font-weight: 400; font-style: normal; font-variant: normal; text-decoration: none; vertical-align: baseline; white-space: pre-wrap;&quot;&gt;d’&lt;/span&gt;&lt;/font&gt;&lt;font style=&quot;font-size: 12px;&quot;&gt;&lt;span id=&quot;docs-internal-guid-774d3248-7fff-bee1-e247-83fd71345e65&quot; style=&quot;font-family: Arial, sans-serif; color: rgb(0, 0, 0); background-color: transparent; font-weight: 400; font-style: normal; font-variant: normal; text-decoration: none; vertical-align: baseline; white-space: pre-wrap;&quot;&gt;approvisionnement&lt;/span&gt;&lt;/font&gt;" style="rounded=1;whiteSpace=wrap;html=1;fillColor=#ffe6cc;strokeColor=#d79b00;" vertex="1" parent="wXpOA6ohuVYkugTAgdoW-95">
          <mxGeometry x="300" y="460" width="120" height="60" as="geometry" />
        </mxCell>
        <mxCell id="wXpOA6ohuVYkugTAgdoW-90" style="edgeStyle=orthogonalEdgeStyle;rounded=0;orthogonalLoop=1;jettySize=auto;html=1;exitX=0.5;exitY=1;exitDx=0;exitDy=0;entryX=0.5;entryY=0;entryDx=0;entryDy=0;" edge="1" parent="wXpOA6ohuVYkugTAgdoW-95" source="wXpOA6ohuVYkugTAgdoW-86" target="wXpOA6ohuVYkugTAgdoW-77">
          <mxGeometry relative="1" as="geometry" />
        </mxCell>
        <mxCell id="wXpOA6ohuVYkugTAgdoW-86" value="Création profil utilisateur" style="rounded=1;whiteSpace=wrap;html=1;fillColor=#e1d5e7;strokeColor=#9673a6;" vertex="1" parent="wXpOA6ohuVYkugTAgdoW-95">
          <mxGeometry x="150" y="220" width="120" height="60" as="geometry" />
        </mxCell>
        <mxCell id="wXpOA6ohuVYkugTAgdoW-91" style="edgeStyle=orthogonalEdgeStyle;rounded=0;orthogonalLoop=1;jettySize=auto;html=1;exitX=0.5;exitY=1;exitDx=0;exitDy=0;entryX=0.5;entryY=0;entryDx=0;entryDy=0;" edge="1" parent="wXpOA6ohuVYkugTAgdoW-95" source="wXpOA6ohuVYkugTAgdoW-87" target="wXpOA6ohuVYkugTAgdoW-82">
          <mxGeometry relative="1" as="geometry" />
        </mxCell>
        <mxCell id="wXpOA6ohuVYkugTAgdoW-87" value="Gestion Préférences" style="rounded=1;whiteSpace=wrap;html=1;fillColor=#e1d5e7;strokeColor=#9673a6;" vertex="1" parent="wXpOA6ohuVYkugTAgdoW-95">
          <mxGeometry x="300" y="220" width="120" height="60" as="geometry" />
        </mxCell>
        <mxCell id="wXpOA6ohuVYkugTAgdoW-96" value="Parcours du catalogue" style="rounded=1;whiteSpace=wrap;html=1;fillColor=#e1d5e7;strokeColor=#9673a6;" vertex="1" parent="WIyWlLk6GJQsqaUBKTNV-1">
          <mxGeometry x="790" y="180" width="120" height="60" as="geometry" />
        </mxCell>
        <mxCell id="wXpOA6ohuVYkugTAgdoW-97" value="Ajout d&#39;une recette à une liste" style="rounded=1;whiteSpace=wrap;html=1;fillColor=#e1d5e7;strokeColor=#9673a6;" vertex="1" parent="WIyWlLk6GJQsqaUBKTNV-1">
          <mxGeometry x="980" y="180" width="120" height="60" as="geometry" />
        </mxCell>
        <mxCell id="wXpOA6ohuVYkugTAgdoW-113" style="edgeStyle=orthogonalEdgeStyle;rounded=0;orthogonalLoop=1;jettySize=auto;html=1;exitX=0.5;exitY=1;exitDx=0;exitDy=0;entryX=0.5;entryY=0;entryDx=0;entryDy=0;" edge="1" parent="WIyWlLk6GJQsqaUBKTNV-1" source="wXpOA6ohuVYkugTAgdoW-103" target="wXpOA6ohuVYkugTAgdoW-65">
          <mxGeometry relative="1" as="geometry" />
        </mxCell>
        <mxCell id="wXpOA6ohuVYkugTAgdoW-103" value="Récupération des ingrédients selon les recettes" style="rounded=1;whiteSpace=wrap;html=1;fillColor=#ffe6cc;strokeColor=#d79b00;" vertex="1" parent="WIyWlLk6GJQsqaUBKTNV-1">
          <mxGeometry x="1260" y="455" width="120" height="60" as="geometry" />
        </mxCell>
        <mxCell id="wXpOA6ohuVYkugTAgdoW-108" style="edgeStyle=orthogonalEdgeStyle;rounded=0;orthogonalLoop=1;jettySize=auto;html=1;exitX=0.5;exitY=1;exitDx=0;exitDy=0;entryX=0.5;entryY=0;entryDx=0;entryDy=0;" edge="1" parent="WIyWlLk6GJQsqaUBKTNV-1" source="wXpOA6ohuVYkugTAgdoW-104" target="wXpOA6ohuVYkugTAgdoW-103">
          <mxGeometry relative="1" as="geometry" />
        </mxCell>
        <mxCell id="wXpOA6ohuVYkugTAgdoW-104" value="Génération automatique" style="rounded=1;whiteSpace=wrap;html=1;fillColor=#e1d5e7;strokeColor=#9673a6;" vertex="1" parent="WIyWlLk6GJQsqaUBKTNV-1">
          <mxGeometry x="1260" y="375" width="120" height="60" as="geometry" />
        </mxCell>
        <mxCell id="wXpOA6ohuVYkugTAgdoW-109" style="edgeStyle=orthogonalEdgeStyle;rounded=0;orthogonalLoop=1;jettySize=auto;html=1;exitX=0.5;exitY=1;exitDx=0;exitDy=0;entryX=0.5;entryY=0;entryDx=0;entryDy=0;" edge="1" parent="WIyWlLk6GJQsqaUBKTNV-1" source="wXpOA6ohuVYkugTAgdoW-105" target="wXpOA6ohuVYkugTAgdoW-55">
          <mxGeometry relative="1" as="geometry" />
        </mxCell>
        <mxCell id="wXpOA6ohuVYkugTAgdoW-105" value="&lt;div&gt;Génération&amp;nbsp;&lt;/div&gt;&lt;div&gt;manuelle&lt;/div&gt;" style="rounded=1;whiteSpace=wrap;html=1;fillColor=#e1d5e7;strokeColor=#9673a6;" vertex="1" parent="WIyWlLk6GJQsqaUBKTNV-1">
          <mxGeometry x="1420" y="375" width="120" height="60" as="geometry" />
        </mxCell>
        <mxCell id="wXpOA6ohuVYkugTAgdoW-121" style="edgeStyle=orthogonalEdgeStyle;rounded=0;orthogonalLoop=1;jettySize=auto;html=1;exitX=1;exitY=0.5;exitDx=0;exitDy=0;entryX=0.5;entryY=0;entryDx=0;entryDy=0;" edge="1" parent="WIyWlLk6GJQsqaUBKTNV-1" source="wXpOA6ohuVYkugTAgdoW-114" target="wXpOA6ohuVYkugTAgdoW-117">
          <mxGeometry relative="1" as="geometry" />
        </mxCell>
        <mxCell id="wXpOA6ohuVYkugTAgdoW-122" style="edgeStyle=orthogonalEdgeStyle;rounded=0;orthogonalLoop=1;jettySize=auto;html=1;exitX=1;exitY=0.5;exitDx=0;exitDy=0;entryX=0.5;entryY=0;entryDx=0;entryDy=0;" edge="1" parent="WIyWlLk6GJQsqaUBKTNV-1" source="wXpOA6ohuVYkugTAgdoW-114" target="wXpOA6ohuVYkugTAgdoW-118">
          <mxGeometry relative="1" as="geometry" />
        </mxCell>
        <mxCell id="wXpOA6ohuVYkugTAgdoW-153" style="edgeStyle=orthogonalEdgeStyle;rounded=0;orthogonalLoop=1;jettySize=auto;html=1;exitX=0.5;exitY=1;exitDx=0;exitDy=0;entryX=0.5;entryY=0;entryDx=0;entryDy=0;" edge="1" parent="WIyWlLk6GJQsqaUBKTNV-1" source="wXpOA6ohuVYkugTAgdoW-114" target="wXpOA6ohuVYkugTAgdoW-152">
          <mxGeometry relative="1" as="geometry" />
        </mxCell>
        <mxCell id="wXpOA6ohuVYkugTAgdoW-114" value="&lt;div&gt;Action&amp;nbsp;&lt;/div&gt;&lt;div&gt;choisie ?&lt;/div&gt;" style="rhombus;whiteSpace=wrap;html=1;fillColor=#dae8fc;strokeColor=#6c8ebf;" vertex="1" parent="WIyWlLk6GJQsqaUBKTNV-1">
          <mxGeometry x="1710" y="40" width="80" height="80" as="geometry" />
        </mxCell>
        <mxCell id="wXpOA6ohuVYkugTAgdoW-119" style="edgeStyle=orthogonalEdgeStyle;rounded=0;orthogonalLoop=1;jettySize=auto;html=1;exitX=0.5;exitY=1;exitDx=0;exitDy=0;entryX=0.5;entryY=0;entryDx=0;entryDy=0;" edge="1" parent="WIyWlLk6GJQsqaUBKTNV-1" source="wXpOA6ohuVYkugTAgdoW-117" target="wXpOA6ohuVYkugTAgdoW-73">
          <mxGeometry relative="1" as="geometry" />
        </mxCell>
        <mxCell id="wXpOA6ohuVYkugTAgdoW-117" value="Ajout" style="rounded=1;whiteSpace=wrap;html=1;fillColor=#e1d5e7;strokeColor=#9673a6;" vertex="1" parent="WIyWlLk6GJQsqaUBKTNV-1">
          <mxGeometry x="1830" y="110" width="120" height="60" as="geometry" />
        </mxCell>
        <mxCell id="wXpOA6ohuVYkugTAgdoW-120" style="edgeStyle=orthogonalEdgeStyle;rounded=0;orthogonalLoop=1;jettySize=auto;html=1;exitX=0.5;exitY=1;exitDx=0;exitDy=0;entryX=0.5;entryY=0;entryDx=0;entryDy=0;" edge="1" parent="WIyWlLk6GJQsqaUBKTNV-1" source="wXpOA6ohuVYkugTAgdoW-118" target="wXpOA6ohuVYkugTAgdoW-70">
          <mxGeometry relative="1" as="geometry" />
        </mxCell>
        <mxCell id="wXpOA6ohuVYkugTAgdoW-118" value="Suppression" style="rounded=1;whiteSpace=wrap;html=1;fillColor=#e1d5e7;strokeColor=#9673a6;" vertex="1" parent="WIyWlLk6GJQsqaUBKTNV-1">
          <mxGeometry x="1980" y="110" width="120" height="60" as="geometry" />
        </mxCell>
        <mxCell id="wXpOA6ohuVYkugTAgdoW-138" style="edgeStyle=orthogonalEdgeStyle;rounded=0;orthogonalLoop=1;jettySize=auto;html=1;exitX=0.5;exitY=1;exitDx=0;exitDy=0;exitPerimeter=0;entryX=0.5;entryY=0;entryDx=0;entryDy=0;" edge="1" parent="WIyWlLk6GJQsqaUBKTNV-1" source="wXpOA6ohuVYkugTAgdoW-137" target="wXpOA6ohuVYkugTAgdoW-3">
          <mxGeometry relative="1" as="geometry" />
        </mxCell>
        <mxCell id="wXpOA6ohuVYkugTAgdoW-137" value="Démarrage de l&#39;application" style="strokeWidth=1;html=1;shape=mxgraph.flowchart.terminator;whiteSpace=wrap;fillColor=#d5e8d4;strokeColor=#82b366;" vertex="1" parent="WIyWlLk6GJQsqaUBKTNV-1">
          <mxGeometry x="70" y="-440" width="100" height="60" as="geometry" />
        </mxCell>
        <mxCell id="wXpOA6ohuVYkugTAgdoW-145" style="edgeStyle=orthogonalEdgeStyle;rounded=0;orthogonalLoop=1;jettySize=auto;html=1;exitX=1;exitY=0.5;exitDx=0;exitDy=0;entryX=0.5;entryY=0;entryDx=0;entryDy=0;" edge="1" parent="WIyWlLk6GJQsqaUBKTNV-1" source="wXpOA6ohuVYkugTAgdoW-141" target="wXpOA6ohuVYkugTAgdoW-143">
          <mxGeometry relative="1" as="geometry" />
        </mxCell>
        <mxCell id="wXpOA6ohuVYkugTAgdoW-147" style="edgeStyle=orthogonalEdgeStyle;rounded=0;orthogonalLoop=1;jettySize=auto;html=1;exitX=1;exitY=0.5;exitDx=0;exitDy=0;entryX=0.5;entryY=0;entryDx=0;entryDy=0;" edge="1" parent="WIyWlLk6GJQsqaUBKTNV-1" source="wXpOA6ohuVYkugTAgdoW-141" target="wXpOA6ohuVYkugTAgdoW-146">
          <mxGeometry relative="1" as="geometry" />
        </mxCell>
        <mxCell id="wXpOA6ohuVYkugTAgdoW-155" style="edgeStyle=orthogonalEdgeStyle;rounded=0;orthogonalLoop=1;jettySize=auto;html=1;exitX=0.5;exitY=1;exitDx=0;exitDy=0;entryX=0.5;entryY=0;entryDx=0;entryDy=0;" edge="1" parent="WIyWlLk6GJQsqaUBKTNV-1" source="wXpOA6ohuVYkugTAgdoW-141" target="wXpOA6ohuVYkugTAgdoW-154">
          <mxGeometry relative="1" as="geometry" />
        </mxCell>
        <mxCell id="wXpOA6ohuVYkugTAgdoW-141" value="&lt;div&gt;Action&amp;nbsp;&lt;/div&gt;&lt;div&gt;choisie ?&lt;/div&gt;" style="rhombus;whiteSpace=wrap;html=1;fillColor=#dae8fc;strokeColor=#6c8ebf;" vertex="1" parent="WIyWlLk6GJQsqaUBKTNV-1">
          <mxGeometry x="1180" y="40" width="80" height="80" as="geometry" />
        </mxCell>
        <mxCell id="wXpOA6ohuVYkugTAgdoW-144" style="edgeStyle=orthogonalEdgeStyle;rounded=0;orthogonalLoop=1;jettySize=auto;html=1;exitX=0.5;exitY=1;exitDx=0;exitDy=0;entryX=0.5;entryY=0;entryDx=0;entryDy=0;" edge="1" parent="WIyWlLk6GJQsqaUBKTNV-1" source="wXpOA6ohuVYkugTAgdoW-143" target="wXpOA6ohuVYkugTAgdoW-48">
          <mxGeometry relative="1" as="geometry" />
        </mxCell>
        <mxCell id="wXpOA6ohuVYkugTAgdoW-143" value="Génération automatique" style="rounded=1;whiteSpace=wrap;html=1;fillColor=#e1d5e7;strokeColor=#9673a6;" vertex="1" parent="WIyWlLk6GJQsqaUBKTNV-1">
          <mxGeometry x="1260" y="180" width="120" height="60" as="geometry" />
        </mxCell>
        <mxCell id="wXpOA6ohuVYkugTAgdoW-149" style="edgeStyle=orthogonalEdgeStyle;rounded=0;orthogonalLoop=1;jettySize=auto;html=1;exitX=0.5;exitY=1;exitDx=0;exitDy=0;entryX=0.5;entryY=0;entryDx=0;entryDy=0;" edge="1" parent="WIyWlLk6GJQsqaUBKTNV-1" source="wXpOA6ohuVYkugTAgdoW-146" target="wXpOA6ohuVYkugTAgdoW-148">
          <mxGeometry relative="1" as="geometry">
            <mxPoint x="1605" y="260" as="targetPoint" />
          </mxGeometry>
        </mxCell>
        <mxCell id="wXpOA6ohuVYkugTAgdoW-146" value="Export" style="rounded=1;whiteSpace=wrap;html=1;fillColor=#e1d5e7;strokeColor=#9673a6;" vertex="1" parent="WIyWlLk6GJQsqaUBKTNV-1">
          <mxGeometry x="1545" y="180" width="120" height="60" as="geometry" />
        </mxCell>
        <mxCell id="wXpOA6ohuVYkugTAgdoW-150" style="edgeStyle=orthogonalEdgeStyle;rounded=0;orthogonalLoop=1;jettySize=auto;html=1;exitX=0.5;exitY=1;exitDx=0;exitDy=0;entryX=1;entryY=1;entryDx=0;entryDy=0;dashed=1;dashPattern=12 12;" edge="1" parent="WIyWlLk6GJQsqaUBKTNV-1" source="wXpOA6ohuVYkugTAgdoW-148" target="wXpOA6ohuVYkugTAgdoW-141">
          <mxGeometry relative="1" as="geometry">
            <Array as="points">
              <mxPoint x="1610" y="340" />
              <mxPoint x="1610" y="790" />
              <mxPoint x="1240" y="790" />
            </Array>
          </mxGeometry>
        </mxCell>
        <mxCell id="wXpOA6ohuVYkugTAgdoW-148" value="&lt;div&gt;Téléchargement&lt;/div&gt;&lt;div&gt;liste de courses&lt;/div&gt;" style="shape=parallelogram;html=1;strokeWidth=1;perimeter=parallelogramPerimeter;whiteSpace=wrap;rounded=1;arcSize=12;size=0.23;fillColor=#fff2cc;strokeColor=#d6b656;" vertex="1" parent="WIyWlLk6GJQsqaUBKTNV-1">
          <mxGeometry x="1530" y="280" width="150" height="60" as="geometry" />
        </mxCell>
        <mxCell id="wXpOA6ohuVYkugTAgdoW-164" style="edgeStyle=orthogonalEdgeStyle;rounded=0;orthogonalLoop=1;jettySize=auto;html=1;exitX=0.5;exitY=1;exitDx=0;exitDy=0;entryX=1;entryY=1;entryDx=0;entryDy=0;dashed=1;dashPattern=12 12;" edge="1" parent="WIyWlLk6GJQsqaUBKTNV-1" source="wXpOA6ohuVYkugTAgdoW-152" target="wXpOA6ohuVYkugTAgdoW-75">
          <mxGeometry relative="1" as="geometry" />
        </mxCell>
        <mxCell id="wXpOA6ohuVYkugTAgdoW-152" value="Retour à l&#39;acceil" style="rounded=1;whiteSpace=wrap;html=1;fillColor=#ffe6cc;strokeColor=#d79b00;" vertex="1" parent="WIyWlLk6GJQsqaUBKTNV-1">
          <mxGeometry x="1690" y="1140" width="120" height="60" as="geometry" />
        </mxCell>
        <mxCell id="wXpOA6ohuVYkugTAgdoW-163" style="edgeStyle=orthogonalEdgeStyle;rounded=0;orthogonalLoop=1;jettySize=auto;html=1;exitX=0.5;exitY=1;exitDx=0;exitDy=0;entryX=1;entryY=1;entryDx=0;entryDy=0;dashed=1;dashPattern=12 12;" edge="1" parent="WIyWlLk6GJQsqaUBKTNV-1" source="wXpOA6ohuVYkugTAgdoW-154" target="wXpOA6ohuVYkugTAgdoW-75">
          <mxGeometry relative="1" as="geometry" />
        </mxCell>
        <mxCell id="wXpOA6ohuVYkugTAgdoW-154" value="Retour à l&#39;acceil" style="rounded=1;whiteSpace=wrap;html=1;fillColor=#ffe6cc;strokeColor=#d79b00;" vertex="1" parent="WIyWlLk6GJQsqaUBKTNV-1">
          <mxGeometry x="1160" y="1140" width="120" height="60" as="geometry" />
        </mxCell>
        <mxCell id="wXpOA6ohuVYkugTAgdoW-162" style="edgeStyle=orthogonalEdgeStyle;rounded=0;orthogonalLoop=1;jettySize=auto;html=1;exitX=0.5;exitY=1;exitDx=0;exitDy=0;entryX=1;entryY=1;entryDx=0;entryDy=0;dashed=1;dashPattern=12 12;" edge="1" parent="WIyWlLk6GJQsqaUBKTNV-1" source="wXpOA6ohuVYkugTAgdoW-156" target="wXpOA6ohuVYkugTAgdoW-75">
          <mxGeometry relative="1" as="geometry">
            <mxPoint x="180" y="-140" as="targetPoint" />
          </mxGeometry>
        </mxCell>
        <mxCell id="wXpOA6ohuVYkugTAgdoW-156" value="Retour à l&#39;acceil" style="rounded=1;whiteSpace=wrap;html=1;fillColor=#ffe6cc;strokeColor=#d79b00;" vertex="1" parent="WIyWlLk6GJQsqaUBKTNV-1">
          <mxGeometry x="670" y="1140" width="120" height="60" as="geometry" />
        </mxCell>
        <mxCell id="wXpOA6ohuVYkugTAgdoW-161" style="edgeStyle=orthogonalEdgeStyle;rounded=0;orthogonalLoop=1;jettySize=auto;html=1;exitX=0.5;exitY=1;exitDx=0;exitDy=0;entryX=1;entryY=1;entryDx=0;entryDy=0;dashed=1;dashPattern=12 12;" edge="1" parent="WIyWlLk6GJQsqaUBKTNV-1" source="wXpOA6ohuVYkugTAgdoW-159" target="wXpOA6ohuVYkugTAgdoW-75">
          <mxGeometry relative="1" as="geometry" />
        </mxCell>
        <mxCell id="wXpOA6ohuVYkugTAgdoW-159" value="Retour à l&#39;acceil" style="rounded=1;whiteSpace=wrap;html=1;fillColor=#ffe6cc;strokeColor=#d79b00;" vertex="1" parent="WIyWlLk6GJQsqaUBKTNV-1">
          <mxGeometry x="210" y="1140" width="120" height="60" as="geometry" />
        </mxCell>
        <mxCell id="wXpOA6ohuVYkugTAgdoW-160" style="edgeStyle=orthogonalEdgeStyle;rounded=0;orthogonalLoop=1;jettySize=auto;html=1;exitX=0.5;exitY=1;exitDx=0;exitDy=0;entryX=0.5;entryY=0;entryDx=0;entryDy=0;" edge="1" parent="WIyWlLk6GJQsqaUBKTNV-1" source="wXpOA6ohuVYkugTAgdoW-20" target="wXpOA6ohuVYkugTAgdoW-159">
          <mxGeometry relative="1" as="geometry" />
        </mxCell>
        <mxCell id="wXpOA6ohuVYkugTAgdoW-165" value="Sortie de l&#39;application" style="strokeWidth=1;html=1;shape=mxgraph.flowchart.terminator;whiteSpace=wrap;fillColor=#f8cecc;strokeColor=#b85450;" vertex="1" parent="WIyWlLk6GJQsqaUBKTNV-1">
          <mxGeometry x="70" y="1260" width="100" height="60" as="geometry" />
        </mxCell>
        <mxCell id="wXpOA6ohuVYkugTAgdoW-166" style="edgeStyle=orthogonalEdgeStyle;rounded=0;orthogonalLoop=1;jettySize=auto;html=1;exitX=0.5;exitY=1;exitDx=0;exitDy=0;entryX=0.5;entryY=0;entryDx=0;entryDy=0;entryPerimeter=0;" edge="1" parent="WIyWlLk6GJQsqaUBKTNV-1" source="wXpOA6ohuVYkugTAgdoW-75" target="wXpOA6ohuVYkugTAgdoW-165">
          <mxGeometry relative="1" as="geometry" />
        </mxCell>
      </root>
    </mxGraphModel>
  </diagram>
</mxfile>
